HIERARCHY
ROOT Hips
{
 OFFSET 0.000000 0.000000 0.000000
 CHANNELS 6 Xposition Yposition Zposition Yrotation Xrotation Zrotation
 JOINT Chest
 {
  OFFSET 0.000000 9.585900 0.002600
  CHANNELS 3 Yrotation Xrotation Zrotation
  JOINT Chest2
  {
   OFFSET 0.000000 9.601200 -0.005300
   CHANNELS 3 Yrotation Xrotation Zrotation
   JOINT Chest3
   {
    OFFSET 0.000000 9.561800 0.000000
    CHANNELS 3 Yrotation Xrotation Zrotation
    JOINT Chest4
    {
     OFFSET 0.000000 9.552100 0.000000
     CHANNELS 3 Yrotation Xrotation Zrotation
     JOINT Neck
     {
      OFFSET 0.000000 14.453000 0.000000
      CHANNELS 3 Yrotation Xrotation Zrotation
      JOINT Head
      {
       OFFSET 0.000000 8.936500 -0.011300
       CHANNELS 3 Yrotation Xrotation Zrotation
       End Site
       {
        OFFSET 0.000000 17.073600 -0.006000
       }
      }
     }
     JOINT RightCollar
     {
      OFFSET -2.921100 9.558500 0.000000
      CHANNELS 3 Yrotation Xrotation Zrotation
      JOINT RightShoulder
      {
       OFFSET -13.519700 0.000000 0.000000
       CHANNELS 3 Yrotation Xrotation Zrotation
       JOINT RightElbow
       {
        OFFSET 0.000000 -29.696600 0.000000
        CHANNELS 3 Yrotation Xrotation Zrotation
        JOINT RightWrist
        {
         OFFSET 0.000000 -24.004700 0.000000
         CHANNELS 3 Yrotation Xrotation Zrotation
         End Site
         {
          OFFSET 0.000000 -17.728500 0.000000
         }
        }
       }
      }
     }
     JOINT LeftCollar
     {
      OFFSET 2.921100 9.558500 0.000000
      CHANNELS 3 Yrotation Xrotation Zrotation
      JOINT LeftShoulder
      {
       OFFSET 13.519700 0.000000 0.000000
       CHANNELS 3 Yrotation Xrotation Zrotation
       JOINT LeftElbow
       {
        OFFSET 0.000000 -29.696600 0.000000
        CHANNELS 3 Yrotation Xrotation Zrotation
        JOINT LeftWrist
        {
         OFFSET 0.000000 -24.004700 0.000000
         CHANNELS 3 Yrotation Xrotation Zrotation
         End Site
         {
          OFFSET 0.000000 -17.728500 0.000000
         }
        }
       }
      }
     }
    }
   }
  }
 }
 JOINT RightHip
 {
  OFFSET -7.771700 -0.012900 -0.001300
  CHANNELS 3 Yrotation Xrotation Zrotation
  JOINT RightKnee
  {
   OFFSET 0.000000 -40.869800 0.001200
   CHANNELS 3 Yrotation Xrotation Zrotation
   JOINT RightAnkle
   {
    OFFSET 0.000000 -39.717900 0.002100
    CHANNELS 3 Yrotation Xrotation Zrotation
    JOINT RightToe
    {
     OFFSET 0.000000 -4.965400 11.033500
     CHANNELS 3 Yrotation Xrotation Zrotation
     End Site
     {
      OFFSET 0.000000 -1.423100 5.872300
     }
    }
   }
  }
 }
 JOINT LeftHip
 {
  OFFSET 7.771700 -0.012900 -0.001300
  CHANNELS 3 Yrotation Xrotation Zrotation
  JOINT LeftKnee
  {
   OFFSET 0.000000 -40.869800 0.001200
   CHANNELS 3 Yrotation Xrotation Zrotation
   JOINT LeftAnkle
   {
    OFFSET 0.000000 -39.717900 0.002100
    CHANNELS 3 Yrotation Xrotation Zrotation
    JOINT LeftToe
    {
     OFFSET 0.000000 -4.965400 11.033500
     CHANNELS 3 Yrotation Xrotation Zrotation
     End Site
     {
      OFFSET 0.000000 -1.423100 5.872300
     }
    }
   }
  }
 }
}
MOTION
Frames: 7
Frame Time: 0.008333
-273.630435 60.361129 -83.437920 158.098863 -25.435949 2.838070 4.768716 17.599595 1.486534 0.506698 1.978942 0.094910 0.835298 3.293551 0.168789 4.118920 15.359129 1.227089 1.853524 16.406548 -0.180603 2.001250 -8.517262 -0.636973 2.072490 5.992533 -3.785363 -4.194169 -14.373062 -6.556350 -87.462480 -71.262023 103.053438 -4.858933 4.849781 -31.018968 -8.318612 2.216289 -4.760997 20.155862 -7.720495 1.565179 146.510339 -87.392212 -158.180399 -4.474247 4.650450 5.752813 0.643587 -43.963949 2.338894 -22.359488 68.966438 -17.212108 0.316321 -3.447685 -4.165249 -0.013538 -0.017909 -0.011012 15.236590 -43.783591 -1.659772 24.998030 61.235887 24.195127 -15.813797 -12.019169 2.565368 0.017221 -0.018404 0.007015
-273.629623 60.361076 -83.438486 158.093592 -25.441105 2.826875 4.782277 17.593254 1.500468 0.510497 1.970722 0.094164 0.832240 3.298208 0.170079 4.150023 15.314181 1.225390 1.837402 16.437898 -0.182431 1.985389 -8.482342 -0.627106 2.047931 6.037997 -3.777987 -4.183748 -14.367657 -6.550048 -87.449726 -71.264143 103.047197 -4.846324 4.846069 -30.957032 -8.333920 2.229048 -4.753911 20.076669 -7.742936 1.551369 143.103772 -87.601923 -154.714507 -4.451198 4.560996 5.768414 0.630844 -43.958216 2.366150 -22.364261 68.962962 -17.222826 0.314118 -3.443459 -4.161783 -0.011397 -0.021349 -0.011759 15.242698 -43.786222 -1.649896 24.986735 61.246628 24.195332 -15.795920 -12.029357 2.568067 0.023179 -0.008499 0.006917
-273.629506 60.361316 -83.439644 158.071444 -25.441255 2.829930 4.809865 17.582931 1.507120 0.518562 1.949613 0.089137 0.851590 3.256393 0.164701 4.160869 15.327537 1.237845 1.812629 16.485445 -0.166821 1.981031 -8.462057 -0.633476 2.034854 6.058347 -3.762572 -4.182627 -14.341087 -6.544592 -87.411383 -71.269833 103.019507 -4.841102 4.839467 -30.932590 -8.348520 2.229721 -4.743162 19.999950 -7.750470 1.541836 137.990477 -87.816787 -149.550528 -4.421584 4.428355 5.776833 0.637984 -43.955666 2.386998 -22.355088 68.956883 -17.226084 0.306951 -3.438666 -4.156732 -0.009965 -0.021727 -0.009026 15.268593 -43.786727 -1.644871 24.969535 61.250750 24.189922 -15.883110 -12.032078 2.557677 0.010169 -0.001799 0.014810
-273.630466 60.362180 -83.441927 158.060738 -25.440109 2.838675 4.827156 17.554298 1.496177 0.533347 1.935140 0.088606 0.843499 3.265700 0.170137 4.195936 15.295130 1.235420 1.790128 16.523340 -0.157336 1.966984 -8.425548 -0.626395 2.007273 6.102702 -3.733864 -4.170290 -14.338007 -6.543138 -87.303212 -71.275247 102.952512 -4.833817 4.817333 -30.931148 -8.372949 2.233997 -4.729208 19.910561 -7.767173 1.527733 130.139375 -88.031834 -141.651020 -4.384009 4.238901 5.781626 0.641829 -43.955520 2.396270 -22.365751 68.951919 -17.252006 0.304872 -3.437073 -4.151201 -0.008630 -0.021604 -0.007146 15.291826 -43.786892 -1.650669 24.951898 61.259782 24.183756 -15.994004 -12.033169 2.543518 -0.001346 -0.000041 0.023530
-273.628665 60.363636 -83.443968 158.058018 -25.438733 2.830736 4.848334 17.521132 1.505463 0.551280 1.935287 0.084218 0.815967 3.284552 0.179565 4.256653 15.247890 1.223505 1.756718 16.550495 -0.141059 1.951303 -8.381812 -0.621078 1.956760 6.149702 -3.697860 -4.152343 -14.351318 -6.536103 -87.205291 -71.287635 102.854555 -4.826215 4.812587 -30.879802 -8.408930 2.224665 -4.707934 19.797373 -7.788913 1.511898 118.069306 -88.200483 -129.537607 -4.341894 3.981886 5.787225 0.605287 -43.951577 2.444632 -22.374988 68.941196 -17.289837 0.300128 -3.435899 -4.148961 -0.004071 -0.021790 -0.004479 15.292689 -43.791299 -1.645425 24.952044 61.260426 24.191901 -15.977437 -12.027841 2.542584 0.002326 -0.004484 0.017457
-273.625774 60.365891 -83.446594 158.054961 -25.439333 2.821631 4.934368 17.475336 1.518873 0.521833 1.957048 0.094520 0.853655 3.250339 0.170047 4.271019 15.261357 1.239726 1.711234 16.562588 -0.124171 1.922390 -8.349527 -0.596412 1.885625 6.176394 -3.653664 -4.148571 -14.375375 -6.520188 -87.090058 -71.306375 102.732420 -4.821646 4.812938 -30.846951 -8.480058 2.231550 -4.674651 19.666788 -7.858785 1.485053 100.719967 -88.215116 -112.152410 -4.299729 3.651980 5.794283 0.588362 -43.948976 2.471393 -22.379227 68.939041 -17.306241 0.300744 -3.433853 -4.145975 -0.005823 -0.024983 -0.003243 15.290413 -43.792953 -1.641671 24.947550 61.265004 24.191021 -15.855439 -12.021875 2.555950 0.006125 -0.015695 0.002111
-273.623194 60.368673 -83.449714 158.050445 -25.439985 2.820586 4.964528 17.467797 1.523756 0.556077 1.953643 0.088891 0.877958 3.244127 0.166338 4.307605 15.261738 1.248406 1.719780 16.573529 -0.151590 1.813634 -8.341669 -0.503906 1.811326 6.168309 -3.602850 -4.178926 -14.397990 -6.501750 -86.839508 -71.322601 102.514000 -4.807925 4.783448 -30.825774 -8.571215 2.214558 -4.633126 19.498678 -7.950581 1.468430 81.462568 -87.895314 -92.890437 -4.266188 3.274448 5.794610 0.578314 -43.945816 2.489013 -22.379161 68.937244 -17.316099 0.297397 -3.436249 -4.149243 -0.005817 -0.023957 0.000541 15.293024 -43.789527 -1.645577 24.951898 61.264446 24.199319 -15.795658 -12.012678 2.559449 0.009836 -0.024026 -0.002046
